<svg xmlns="http://www.w3.org/2000/svg" width="16" height="16" fill="none" viewBox="0 0 16 16">
  <path fill="#000" fill-opacity=".9" d="M11.25 1.75a3 3 0 1 1 0 6 3 3 0 0 1 0-6Zm-2 3a2 2 0 1 0 4 0 2 2 0 0 0-4 0ZM2 3a1 1 0 0 1 1-1h3.5a1 1 0 0 1 1 1v3.5a1 1 0 0 1-1 1H3a1 1 0 0 1-1-1V3Zm1 0v3.5h3.5V3H3ZM2 9.5a1 1 0 0 1 1-1h3.5a1 1 0 0 1 1 1V13a1 1 0 0 1-1 1H3a1 1 0 0 1-1-1V9.5Zm1 0V13h3.5V9.5H3Zm5.5 0a1 1 0 0 1 1-1H13a1 1 0 0 1 1 1V13a1 1 0 0 1-1 1H9.5a1 1 0 0 1-1-1V9.5Zm1 3.5H13V9.5H9.5V13Z"/>
</svg>
