<svg xmlns="http://www.w3.org/2000/svg" width="16" height="16" fill="none" viewBox="0 0 16 16">
  <path fill="#000" fill-opacity=".9" d="m10.773 11.98 1.373 1.373.707-.707L3.15 2.943l-.707.707 1.21 1.21a7.901 7.901 0 0 0-2.536 2.91L1 8l.117.23c1.344 2.64 3.985 4.27 6.888 4.27a7.6 7.6 0 0 0 2.768-.52Zm-.782-.782a6.672 6.672 0 0 1-1.986.302C5.55 11.5 3.319 10.17 2.11 8a6.855 6.855 0 0 1 2.256-2.426L5.45 6.658a2.88 2.88 0 0 0 3.89 3.89l.65.65Zm-3.78-3.78 2.37 2.37a1.88 1.88 0 0 1-2.37-2.37Zm8.672.812L15 8l-.117-.23C13.54 5.14 10.898 3.5 8.005 3.5c-.856 0-1.69.142-2.474.411l.8.8A6.699 6.699 0 0 1 8.005 4.5c2.445 0 4.676 1.33 5.894 3.5a6.868 6.868 0 0 1-2.018 2.261l.708.708a7.894 7.894 0 0 0 2.294-2.74Z"/>
  <path fill="#000" fill-opacity=".9" d="M10.88 8a2.88 2.88 0 0 0-3.94-2.68l.816.816a1.88 1.88 0 0 1 2.108 2.108l.815.815c.13-.328.2-.685.2-1.06Z"/>
</svg>
