<svg xmlns="http://www.w3.org/2000/svg" width="16" height="16" fill="none" viewBox="0 0 16 16">
  <path fill="#000" fill-opacity=".9" d="M10.88 8a2.88 2.88 0 1 0-5.76 0 2.88 2.88 0 0 0 5.76 0Zm-1 0a1.88 1.88 0 1 1-3.76 0 1.88 1.88 0 0 1 3.76 0Z"/>
  <path fill="#000" fill-opacity=".9" d="M1.117 8.23c1.344 2.64 3.985 4.27 6.888 4.27 2.893 0 5.534-1.63 6.878-4.27L15 8l-.117-.23C13.54 5.14 10.898 3.5 8.005 3.5c-2.903 0-5.544 1.64-6.888 4.27L1 8l.117.23Zm6.888 3.27C5.55 11.5 3.319 10.17 2.11 8c1.209-2.17 3.44-3.5 5.895-3.5 2.445 0 4.676 1.33 5.894 3.5-1.208 2.17-3.449 3.5-5.894 3.5Z"/>
</svg>
