<svg xmlns="http://www.w3.org/2000/svg" width="16" height="16" fill="none" viewBox="0 0 16 16">
  <path fill="#000" fill-opacity=".9" d="m4.73 7.261.15-.701C5.198 5.079 6.485 3.999 8 3.999s2.803 1.08 3.12 2.561l.15.701.712.084C13.104 7.475 14 8.452 14 9.665 14 10.972 12.963 12 11.733 12H4.267C3.037 11.999 2 10.97 2 9.666c0-1.214.896-2.19 2.019-2.321l.712-.084Zm7.367-.91C11.687 4.427 10.007 3 8 3 5.993 3 4.313 4.428 3.903 6.352 2.269 6.541 1 7.951 1 9.666c0 1.838 1.465 3.333 3.267 3.333h7.466c1.802 0 3.267-1.495 3.267-3.333 0-1.715-1.27-3.124-2.903-3.315Z"/>
</svg>
