<svg xmlns="http://www.w3.org/2000/svg" width="16" height="16" fill="none" viewBox="0 0 16 16">
  <path fill="#000" fill-opacity=".9" d="m4.73 6.263-.712.083C2.897 6.476 2 7.453 2 8.666c0 1.21.89 2.182 2 2.318v1.005c-1.677-.139-3-1.576-3-3.322 0-1.715 1.27-3.124 2.903-3.315C4.313 3.43 5.993 2 8 2c2.007 0 3.687 1.429 4.097 3.352 1.634.19 2.903 1.6 2.903 3.315 0 1.746-1.323 3.183-3 3.322v-1.005c1.11-.136 2-1.108 2-2.317 0-1.214-.896-2.19-2.018-2.321l-.713-.083-.15-.702C10.803 4.081 9.516 3 8 3 6.484 3 5.197 4.08 4.88 5.561l-.15.702Z"/>
  <path fill="#000" fill-opacity=".9" d="m9.797 11.3.708.706-2.15 2.142a.5.5 0 0 1-.706 0L5.5 12.006l.708-.706 1.294 1.289V7.997h1.001v4.592l1.294-1.29Z"/>
</svg>
