<svg xmlns="http://www.w3.org/2000/svg" width="16" height="16" fill="none" viewBox="0 0 16 16">
  <path fill="#000" fill-opacity=".9" d="M3.5 2v12H8v1H3.495c-.475 0-.995-.337-.995-.922V1.922c0-.585.52-.922.995-.922h5.37a1 1 0 0 1 .715.3l3.634 3.704a1 1 0 0 1 .286.7V7.5h-1V6.013h-4V2h-5Zm6 .646v2.367h2.322L9.5 2.646Z"/>
  <path fill="#000" fill-opacity=".9" d="M10.336 9.792c0 .03.01.06.03.083l1.052 1.31 1.053-1.31a.133.133 0 0 0 .029-.083v-.84h1v.84c0 .258-.088.508-.25.71l-1.19 1.481 1.19 1.482c.162.201.25.451.25.71v.84h-1v-.84c0-.03-.01-.06-.03-.084l-1.052-1.31-1.052 1.31a.132.132 0 0 0-.03.083v.84h-1v-.84c0-.258.088-.508.25-.71l1.19-1.48-1.19-1.482a1.133 1.133 0 0 1-.25-.71v-.84h1v.84Z"/>
</svg>
