<svg xmlns="http://www.w3.org/2000/svg" width="16" height="16" fill="none" viewBox="0 0 16 16">
  <path fill="#000" fill-opacity=".9" d="M3.5 2v12h7.734v1H3.495c-.475 0-.995-.337-.995-.922V1.922c0-.585.52-.922.995-.922h5.37a1 1 0 0 1 .715.3l3.634 3.704a1 1 0 0 1 .286.7V7.5h-1V6.013h-4V2h-5Zm6 3.013h2.322L9.5 2.646v2.367Z"/>
  <path fill="#000" fill-opacity=".9" d="M4.481 9h2v.8h-.6v2.4h.6v.8h-2v-.8h.6V9.8h-.6V9ZM9 9v.8H7.792v2.4H9v.8H7.792A.796.796 0 0 1 7 12.2V9.8c0-.442.355-.8.792-.8H9Zm4.797.8V13H13V9h1.743a.8.8 0 0 1 .798.8V13h-.798V9.8h-.946ZM9.5 9.81c0-.441.357-.798.797-.798h1.196c.44 0 .797.357.797.797v2.392c0 .44-.357.797-.797.797h-1.196a.797.797 0 0 1-.797-.797V9.809Zm.797 2.391h1.196V9.809h-1.196v2.392Z"/>
</svg>
