<svg xmlns="http://www.w3.org/2000/svg" width="16" height="16" fill="none" viewBox="0 0 16 16">
  <path fill="#000" fill-opacity=".9" d="M3.5 14V2h5v4.013h4V7.5h1V5.704a1 1 0 0 0-.286-.7L9.58 1.3a1 1 0 0 0-.714-.3h-5.37c-.476 0-.996.337-.996.922v12.156c0 .585.52.922.995.922H12v-1H3.5Zm8.322-8.987H9.5V2.646l2.322 2.367Z"/>
  <path fill="#000" fill-opacity=".9" d="M8.377 9v3.981h1.861a.875.875 0 0 0 .875-.875V9.875A.875.875 0 0 0 10.238 9H8.377Zm.75.75h1.111c.07 0 .125.056.125.125v2.231c0 .07-.056.125-.125.125H9.127V9.75ZM5 9.006v3.992h.75v-1.19h1.111a.875.875 0 0 0 .875-.875V9.88a.875.875 0 0 0-.875-.875H5Zm.75 2.052V9.756h1.111c.07 0 .125.056.125.125v1.052a.125.125 0 0 1-.125.125H5.75Zm6.004 1.94h.75v-1.581h1.611v-.75h-1.611V9.75h1.611V9h-2.361v3.998Z"/>
</svg>
