<svg xmlns="http://www.w3.org/2000/svg" width="16" height="16" fill="none" viewBox="0 0 16 16">
  <path fill="#000" fill-opacity=".9" d="M3.5 2v12H9v1H3.495c-.475 0-.995-.337-.995-.922V1.922c0-.585.52-.922.995-.922h5.291a1 1 0 0 1 .714.3l3.634 3.704a1 1 0 0 1 .286.7V7.5h-1V6.013h-4V2H3.5Zm5.92.646v2.367h2.322L9.42 2.646Z"/>
  <path fill="#000" fill-opacity=".9" d="M11.42 8.42c1.071 0 2 .822 2 1.902 0 .87-.704 1.51-1.362 1.76-.096.037-.138.113-.138.178v.66h-1v-.66c0-.52.336-.94.779-1.111l.002-.001c.44-.167.72-.526.72-.826 0-.465-.417-.901-1-.901-.584 0-1 .436-1 .901h-1c0-1.08.929-1.901 2-1.901Zm0 5.38a.6.6 0 1 1 0 1.2.6.6 0 0 1 0-1.2Z"/>
</svg>
