<svg xmlns="http://www.w3.org/2000/svg" width="16" height="16" fill="none" viewBox="0 0 16 16">
  <path fill="#000" fill-opacity=".9" d="M14.994 8a7 7 0 1 1-14 0 7 7 0 0 1 14 0ZM5.803 6.631h1c0-.656.535-1.191 1.191-1.191.657 0 1.192.535 1.192 1.191 0 .44-.368.897-.863 1.098h-.002a1.34 1.34 0 0 0-.827 1.241v.797h1V8.97c0-.145.086-.265.207-.315.742-.303 1.485-1.053 1.485-2.023A2.193 2.193 0 0 0 7.994 4.44a2.193 2.193 0 0 0-2.191 2.191Zm1.664 4.542a.527.527 0 1 0 1.055 0 .527.527 0 0 0-1.055 0Z"/>
</svg>
