<svg xmlns="http://www.w3.org/2000/svg" width="16" height="16" fill="none" viewBox="0 0 16 16">
  <path fill="#000" fill-opacity=".9" d="M7.394 11.6a.6.6 0 1 1 1.2 0 .6.6 0 0 1-1.2 0Zm.6-7.594A2.427 2.427 0 0 0 5.57 6.431h1c0-.785.64-1.425 1.425-1.425s1.425.64 1.425 1.425c0 .538-.444 1.077-1.025 1.313h-.002c-.53.22-.898.74-.898 1.348V10h1v-.908c0-.194.115-.355.278-.422.828-.337 1.647-1.171 1.647-2.239a2.427 2.427 0 0 0-2.425-2.425Z"/>
  <path fill="#000" fill-opacity=".9" d="M14.994 8a7 7 0 1 0-14 0 7 7 0 0 0 14 0Zm-1 0a6 6 0 1 1-12 0 6 6 0 0 1 12 0Z"/>
</svg>
