<svg xmlns="http://www.w3.org/2000/svg" width="16" height="16" fill="none" viewBox="0 0 16 16">
  <path fill="#000" fill-opacity=".9" d="M7.906 2.793c2.944 0 5.304 2.347 5.304 5.209 0 2.861-2.36 5.208-5.304 5.208-2.462 0-4.515-1.64-5.122-3.85l-1.033.168c.691 2.714 3.185 4.724 6.155 4.724 3.504 0 6.345-2.799 6.345-6.25 0-3.452-2.84-6.25-6.345-6.25A6.368 6.368 0 0 0 2.79 4.304v-1.66H1.75v3.147a.5.5 0 0 0 .5.5h3.127V5.247H3.405a5.317 5.317 0 0 1 4.5-2.454Z"/>
  <path fill="#000" fill-opacity=".9" d="M7 5.5v2.889l2.646 2.646.707-.707L8 7.975V5.5H7Z"/>
</svg>
