<svg xmlns="http://www.w3.org/2000/svg" width="16" height="16" fill="none" viewBox="0 0 16 16">
  <path fill="#000" fill-opacity=".9" d="M2 13V8h1v2.293l3-3L11.707 13H13V3H8V2h5a1 1 0 0 1 1 1v10a1 1 0 0 1-1 1H3a1 1 0 0 1-1-1Zm4-4.293-3 3V13h7.293L6 8.707Z"/>
  <path fill="#000" fill-opacity=".9" d="M12 6a2 2 0 1 1-4 0 2 2 0 0 1 4 0Zm-1 0a1 1 0 1 0-2 0 1 1 0 0 0 2 0Zm-4.718-.44-.707.706-1.414-1.414-1.414 1.414-.708-.707 1.415-1.414-1.415-1.414.708-.707L4.16 3.438l1.414-1.414.707.707-1.414 1.414 1.414 1.414Z"/>
</svg>
