<svg xmlns="http://www.w3.org/2000/svg" width="16" height="16" fill="none" viewBox="0 0 16 16">
  <path fill="#000" fill-opacity=".9" d="M1.1 7.9a6.9 6.9 0 1 1 13.8 0v.2a6.9 6.9 0 1 1-13.8 0v-.2Zm12.787.6h-3a9.863 9.863 0 0 1-1.956 5.427A5.902 5.902 0 0 0 13.887 8.5Zm-3-1h3A5.903 5.903 0 0 0 8.93 2.073 9.863 9.863 0 0 1 10.887 7.5Zm-1.001 0A8.865 8.865 0 0 0 8 2.503 8.865 8.865 0 0 0 6.114 7.5h3.772Zm-4.773 1h-3a5.902 5.902 0 0 0 4.956 5.427A9.864 9.864 0 0 1 5.113 8.5Zm0-1A9.864 9.864 0 0 1 7.07 2.073 5.902 5.902 0 0 0 2.113 7.5h3Zm4.773 1H6.114A8.865 8.865 0 0 0 8 13.497 8.865 8.865 0 0 0 9.886 8.5Z"/>
</svg>
