<svg xmlns="http://www.w3.org/2000/svg" width="16" height="16" fill="none" viewBox="0 0 16 16">
  <path fill="#000" fill-opacity=".9" d="m6.56 12.217 2.122-2.12.707.706-2.121 2.122a2.5 2.5 0 0 1-3.536-3.536l2.122-2.121.707.707-2.122 2.121a1.5 1.5 0 1 0 2.122 2.121Zm4.243-2.827-.707-.708 2.121-2.121a1.5 1.5 0 1 0-2.12-2.122L7.974 6.561l-.707-.707 2.121-2.122a2.5 2.5 0 1 1 3.536 3.536l-2.122 2.121Z"/>
  <path fill="#000" fill-opacity=".9" d="m9.39 6.56.706.708-2.828 2.828-.707-.707 2.828-2.828Z"/>
</svg>
