<svg xmlns="http://www.w3.org/2000/svg" width="16" height="16" fill="none" viewBox="0 0 16 16">
  <path fill="#000" fill-opacity=".9" d="M6 2v2h1V2H6Zm2.177 7.591-2.298 2.298a1.25 1.25 0 0 1-1.768-1.768l2.298-2.298-.707-.707-2.298 2.298a2.25 2.25 0 0 0 3.182 3.182l2.298-2.298-.707-.707ZM9.59 8.177l.708.707 2.298-2.298a2.25 2.25 0 1 0-3.182-3.182L7.116 5.702l.707.707 2.298-2.298a1.25 1.25 0 0 1 1.768 1.768L9.591 8.177ZM12 9v1h2V9h-2ZM2 7h2V6H2v1Zm8 5H9v2h1v-2Zm1.732-.975-.707.707 1.621 1.621.708-.707-1.622-1.621ZM2.646 3.353l1.622 1.622.707-.707-1.621-1.622-.708.707Z"/>
</svg>
