<svg xmlns="http://www.w3.org/2000/svg" width="16" height="16" fill="none" viewBox="0 0 16 16">
  <path fill="#000" fill-opacity=".9" d="M11.253 3.959c.37.383.672.811.896 1.272a4.43 4.43 0 0 1 .44 2.294l-.01-.013a.806.806 0 0 0-1.017-.146l.002-.034c.002-.044.004-.088.004-.131 0-.531-.12-1.048-.358-1.537a3.968 3.968 0 0 0-.72-1.02C9.723 3.85 8.64 3.336 7.442 3.2a5.686 5.686 0 0 0-1.251-.003c-1.203.13-2.293.641-3.068 1.437a3.96 3.96 0 0 0-.722 1.017 3.488 3.488 0 0 0-.365 1.55c0 .69.212 1.374.613 1.976a4.16 4.16 0 0 0 .86.94 3.5 3.5 0 0 0 .169.13.428.428 0 0 1 .153.477l-.082.315-.028.104-.047.179-.03.117-.015.055-.04.16c0 .038.031.07.069.07.01 0 .023-.005.045-.018h.002l1.062-.627a.275.275 0 0 1 .022-.011l.013-.007a.557.557 0 0 1 .442-.045 5.535 5.535 0 0 0 .858.177l.089.012A5.601 5.601 0 0 0 7.44 11.2a5.37 5.37 0 0 0 1.037-.222.806.806 0 0 0 .55.844 6.499 6.499 0 0 1-2.226.386 6.706 6.706 0 0 1-1.814-.25l-1.656.832a.23.23 0 0 1-.02.012l-.009.005-.005.003h-.001a.44.44 0 0 1-.663-.34c0-.006 0-.011-.002-.017l-.002-.029a.19.19 0 0 1 .002-.026l.002-.016.001-.008a.316.316 0 0 1 .023-.098l.002-.005.174-1.37a6.885 6.885 0 0 1-1.06-1.212A4.519 4.519 0 0 1 1 7.184c0-.682.156-1.344.462-1.968a4.95 4.95 0 0 1 .901-1.27c.942-.968 2.26-1.588 3.709-1.745a6.76 6.76 0 0 1 1.493.003c1.443.164 2.752.788 3.688 1.755Z"/>
  <path fill="#000" fill-opacity=".9" d="M11.347 9.05a.807.807 0 1 1 1.376-.62 2.478 2.478 0 0 0 .777 1.363.193.193 0 0 1-.286.258 2.48 2.48 0 0 0-1.477-.785.803.803 0 0 1-.39-.216Zm3.417 1.14a.807.807 0 0 0-1.366.438l-.007.049a2.48 2.48 0 0 1-.768 1.38.192.192 0 1 0 .295.246 2.477 2.477 0 0 1 1.325-.737.79.79 0 0 0 .163-.027.807.807 0 0 0 .357-1.349Zm-4.421 1.276a.193.193 0 0 0 .027.296l.056.053c.36.362.588.806.681 1.271a.741.741 0 0 0 .027.164.807.807 0 1 0 .863-1.015 2.479 2.479 0 0 1-1.38-.769h-.001a.192.192 0 0 0-.273 0Zm.089-.577a2.483 2.483 0 0 1 .775-1.43.193.193 0 1 0-.295-.245 2.48 2.48 0 0 1-1.325.737.773.773 0 0 0-.164.027.807.807 0 1 0 1.008.911Z"/>
</svg>
