<svg xmlns="http://www.w3.org/2000/svg" width="16" height="16" fill="none" viewBox="0 0 16 16">
  <path fill="#000" fill-opacity=".9" d="M1.532 5.587a.498.498 0 0 0-.213.477v3.872a.498.498 0 0 0 .213.477l6.186 4.23a.5.5 0 0 0 .564 0l6.185-4.23a.497.497 0 0 0 .216-.464V6.052a.497.497 0 0 0-.216-.465l-6.185-4.23a.5.5 0 0 0-.564 0l-6.186 4.23ZM2.434 6l5.14-3.516v2.97L4.607 7.485 2.434 6Zm5.99-.546v-2.97L13.566 6l-2.171 1.485-2.97-2.03ZM3.854 8 2.169 9.152V6.848L3.853 8Zm9.98-1.153v2.306L12.147 8l1.686-1.153Zm-2.439 1.668L13.565 10l-5.14 3.516v-2.97l2.969-2.031Zm-3.82 2.03v2.97L2.435 10l2.172-1.485 2.969 2.03ZM10.642 8 8 9.807 5.359 8l2.64-1.807L10.642 8Z"/>
</svg>
