<svg xmlns="http://www.w3.org/2000/svg" width="16" height="16" fill="none" viewBox="0 0 16 16">
  <path fill="#000" fill-opacity=".9" d="M5.341 7.314c.272-.31.56-.62.865-.924l.01-.01H9.82a1.867 1.867 0 0 0-2.06-1.381c.372-.297.745-.57 1.113-.816a2.8 2.8 0 0 1 1.941 2.665v.467H5.341Z"/>
  <path fill="#000" fill-opacity=".9" d="M3.744 15c-.723.01-1.46-.18-2.012-.732-.552-.551-.741-1.29-.732-2.012.01-.718.214-1.499.54-2.282.046-.11.095-.222.146-.334A6.532 6.532 0 0 1 9.64 1.686c.113-.051.224-.1.334-.146.783-.326 1.564-.53 2.282-.54.723-.01 1.46.18 2.012.732.552.551.741 1.29.732 2.012-.01.718-.214 1.499-.54 2.282a8.822 8.822 0 0 1-.133.305 6.543 6.543 0 0 1 .142 2.687l-.061.395H6.206a1.867 1.867 0 0 0 3.301.653l.14-.186h4.667l-.269.646a6.534 6.534 0 0 1-7.714 3.8 9.944 9.944 0 0 1-.305.134c-.783.326-1.564.53-2.282.54Zm1.295-1.17a6.561 6.561 0 0 1-2.382-2.078 8.11 8.11 0 0 1 .423-1.089 5.598 5.598 0 0 0 4.934 2.95 5.597 5.597 0 0 0 4.85-2.8H10.1a2.8 2.8 0 0 1-4.886-1.866V8.48h8.38a5.597 5.597 0 0 0-2.829-5.344c.393-.168.77-.297 1.124-.381a6.562 6.562 0 0 1 1.941 2.283c.365-1.153.32-2.104-.222-2.646-1.275-1.276-4.82.201-7.917 3.299-3.098 3.097-4.575 6.642-3.3 7.917.543.542 1.494.587 2.648.222ZM8.28 2.421a5.599 5.599 0 0 0-5.86 5.86c.671-1.084 1.558-2.198 2.61-3.25 1.052-1.053 2.167-1.939 3.25-2.61Z"/>
</svg>
