<svg xmlns="http://www.w3.org/2000/svg" width="16" height="16" fill="none" viewBox="0 0 16 16">
  <path fill="#000" fill-opacity=".9" d="M14.023 4.432a.115.115 0 0 1-.099.173H8.306A3.408 3.408 0 0 0 4.7 7.15a.115.115 0 0 1-.21.029L2.52 3.765a.115.115 0 0 1 .009-.129A6.97 6.97 0 0 1 8 1a6.994 6.994 0 0 1 6.023 3.432Z"/>
  <path fill="#000" fill-opacity=".9" d="M8 10.617A2.62 2.62 0 0 1 5.384 8 2.62 2.62 0 0 1 8 5.384 2.619 2.619 0 0 1 10.616 8 2.619 2.619 0 0 1 8 10.617Z"/>
  <path fill="#000" fill-opacity=".9" d="M9.034 11.325a.115.115 0 0 0-.121-.04 3.4 3.4 0 0 1-.913.124 3.426 3.426 0 0 1-3.091-1.973L2.098 4.567a.115.115 0 0 0-.2.001 7.005 7.005 0 0 0 5.058 10.355l.017.002c.04 0 .078-.022.099-.058l1.971-3.414a.115.115 0 0 0-.009-.128Z"/>
  <path fill="#000" fill-opacity=".9" d="M10.465 5.37h3.946c.048 0 .09.03.107.074.32.814.482 1.674.482 2.556a6.957 6.957 0 0 1-2.024 4.924A6.957 6.957 0 0 1 8.079 15a.115.115 0 0 1-.1-.172l2.816-4.878A3.385 3.385 0 0 0 11.409 8c0-.921-.364-1.785-1.024-2.432a.115.115 0 0 1 .08-.197Z"/>
</svg>
