<svg xmlns="http://www.w3.org/2000/svg" width="16" height="16" fill="none" viewBox="0 0 16 16">
  <path fill="#000" fill-opacity=".9" d="M13.476 9.77c-.124-.401-.295-.87-.468-1.32l-.63-1.571c0-.019.01-.328.01-.488 0-2.69-1.27-5.391-4.392-5.391-3.12 0-4.39 2.702-4.39 5.39 0 .16.008.47.009.488l-.63 1.572c-.173.45-.343.919-.468 1.32-.596 1.915-.403 2.708-.256 2.725.315.039 1.229-1.442 1.229-1.442 0 .858.441 1.976 1.396 2.784-.357.11-.794.28-1.076.487-.253.187-.221.377-.176.455.2.337 3.432.215 4.365.11.934.105 4.165.228 4.365-.11.046-.077.077-.267-.176-.455-.28-.208-.719-.377-1.076-.487.955-.808 1.396-1.926 1.396-2.784 0 0 .91 1.48 1.226 1.442.145-.016.338-.81-.258-2.725Z"/>
</svg>
