<svg xmlns="http://www.w3.org/2000/svg" width="16" height="16" fill="none" viewBox="0 0 16 16">
  <path fill="#000" fill-opacity=".9" d="M1 6.55C1 4.203 3.266 2.3 6.06 2.3c2.525 0 4.549 1.553 4.93 3.583-.022 0-.04-.002-.057-.003-.05-.002-.08-.004-.15-.004-2.549 0-4.615 1.736-4.615 3.876 0 .361.06.71.17 1.042a5.943 5.943 0 0 1-1.93-.226.503.503 0 0 0-.417.055l-1.108.645a.187.187 0 0 1-.097.032.17.17 0 0 1-.169-.17c0-.032.01-.064.019-.095l.008-.03.189-.709.04-.148a.34.34 0 0 0-.124-.385C1.681 8.983 1 7.83 1 6.55Zm2.775-1.36a.6.6 0 0 0 .599.603.6.6 0 0 0 .598-.603.6.6 0 0 0-.598-.603.6.6 0 0 0-.599.603Zm3.374 0a.6.6 0 0 0 .598.603.6.6 0 0 0 .598-.603.6.6 0 0 0-.598-.603.6.6 0 0 0-.598.603Z"/>
  <path fill="#000" fill-opacity=".9" d="M15 9.752c0 1.067-.568 2.028-1.457 2.677a.284.284 0 0 0-.103.321l.19.715.007.026a.257.257 0 0 1 .015.078.141.141 0 0 1-.14.141.161.161 0 0 1-.082-.026l-.922-.538a.422.422 0 0 0-.348-.046 4.953 4.953 0 0 1-1.377.194c-2.329 0-4.217-1.586-4.217-3.542 0-1.956 1.888-3.542 4.217-3.542C13.113 6.21 15 7.796 15 9.752ZM8.851 8.62c0 .293.236.53.527.53.29 0 .526-.237.526-.53a.529.529 0 0 0-.526-.53.529.529 0 0 0-.527.53Zm2.812 0c0 .293.235.53.526.53.29 0 .526-.237.526-.53a.529.529 0 0 0-.526-.53.528.528 0 0 0-.526.53Z"/>
</svg>
