<svg xmlns="http://www.w3.org/2000/svg" width="16" height="16" fill="none" viewBox="0 0 16 16">
  <path fill="#000" fill-opacity=".9" d="M11.566 9.04h3.397A6.03 6.03 0 0 0 15 8.344a5.87 5.87 0 0 0-.85-3.043c.559-1.428.539-2.64-.21-3.364-.713-.68-2.624-.57-4.784.348a6.678 6.678 0 0 0-.484-.017c-2.966 0-5.454 1.96-6.141 4.6.93-1.144 1.909-1.973 3.216-2.577-.119.107-.813.769-.93.881C1.37 8.483.284 12.805 1.454 13.93c.89.854 2.5.71 4.352-.161.86.42 1.834.658 2.867.658 2.779 0 5.134-1.718 5.988-4.11h-3.424a2.804 2.804 0 0 1-2.45 1.402 2.804 2.804 0 0 1-2.449-1.402 2.6 2.6 0 0 1-.33-1.267v-.01h5.56ZM6.013 7.435c.078-1.342 1.24-2.413 2.659-2.413 1.418 0 2.58 1.07 2.659 2.413H6.013Zm7.896-4.823c.482.468.47 1.33.057 2.405A6.304 6.304 0 0 0 11.02 2.7c1.297-.534 2.352-.605 2.89-.088ZM2.345 13.716c-.615-.591-.43-1.833.363-3.328a6.159 6.159 0 0 0 2.696 3.167c-1.373.598-2.497.7-3.059.16Z"/>
</svg>
