<svg xmlns="http://www.w3.org/2000/svg" width="16" height="16" fill="none" viewBox="0 0 16 16">
  <path fill="#000" fill-opacity=".9" d="M4.5 1.938a7 7 0 1 1 7 12.124 7 7 0 0 1-7-12.124Zm8.954 3.56h-3.002a3.502 3.502 0 0 1 .626 4.162v.001L8.59 13.972a6 6 0 0 0 4.864-8.474Zm-6.02 8.476 1.505-2.607a3.48 3.48 0 0 1-1.114.128 3.5 3.5 0 0 1-2.988-1.941L2.524 5.547A5.992 5.992 0 0 0 2.804 11a5.992 5.992 0 0 0 4.63 2.974ZM5 2.804a5.977 5.977 0 0 0-1.903 1.735l1.488 2.578a3.503 3.503 0 0 1 3.056-2.603l.04-.004a3.5 3.5 0 0 1 .46-.012h4.732A6 6 0 0 0 5 2.804Zm2.972 2.694a2.53 2.53 0 0 0-.182.007l-.039.003a2.5 2.5 0 0 0 .447 4.98 2.5 2.5 0 0 0-.223-4.99h-.003Z"/>
</svg>
