<svg xmlns="http://www.w3.org/2000/svg" width="16" height="16" fill="none" viewBox="0 0 16 16">
  <path fill="#000" fill-opacity=".9" d="M5.317 8.379a.67.67 0 1 1 1.342 0 .67.67 0 0 1-1.342 0Zm4.696-.671a.67.67 0 1 1 0 1.341.67.67 0 0 1 0-1.341Z"/>
  <path fill="#000" fill-opacity=".9" d="m2.316 4 1.68 1.68A6.679 6.679 0 0 1 8 4.353c1.501 0 2.887.493 4.005 1.325L13.685 4l.706.707-1.629 1.63a6.686 6.686 0 0 1 1.947 4.725v.67H1.292v-.67a6.686 6.686 0 0 1 1.947-4.725l-1.63-1.63L2.316 4Zm-.015 6.733H13.7a5.709 5.709 0 0 0-11.398 0Z"/>
</svg>
