<svg xmlns="http://www.w3.org/2000/svg" width="16" height="16" fill="none" viewBox="0 0 16 16">
  <path fill="#000" fill-opacity=".9" d="M10.686 1c.086.79-.232 1.583-.702 2.154-.472.57-1.244 1.013-2.001.954-.102-.775.28-1.58.716-2.087.487-.57 1.308-.994 1.987-1.021Zm2.442 4.605c-.146.09-1.462.911-1.446 2.562.018 1.994 1.71 2.687 1.806 2.726a.126.126 0 0 0 .004.002.79.79 0 0 0-.005.017c-.043.134-.316 1.005-.93 1.902-.561.822-1.144 1.64-2.063 1.656-.442.008-.737-.12-1.044-.252-.32-.139-.655-.283-1.183-.283-.554 0-.903.149-1.24.292-.291.124-.573.245-.97.26-.887.034-1.562-.887-2.13-1.706-1.158-1.675-2.044-4.733-.854-6.797.59-1.025 1.645-1.674 2.79-1.691.494-.009.972.181 1.39.347.32.127.606.24.836.24.207 0 .484-.109.808-.237.51-.2 1.133-.446 1.775-.381.44.018 1.674.177 2.466 1.336a.45.45 0 0 1-.01.007Z"/>
</svg>
