<svg xmlns="http://www.w3.org/2000/svg" width="16" height="16" fill="none" viewBox="0 0 16 16">
  <path fill="#000" fill-opacity=".9" d="M8 1C4.135 1 1 4.213 1 8.177c0 3.171 2.006 5.861 4.787 6.81.35.067.463-.156.463-.345v-1.336c-1.947.434-2.353-.847-2.353-.847-.318-.83-.777-1.05-.777-1.05-.635-.446.048-.436.048-.436.703.05 1.073.74 1.073.74.624 1.097 1.637.78 2.037.596.062-.463.244-.78.445-.96-1.555-.182-3.19-.797-3.19-3.546 0-.785.274-1.424.721-1.927-.072-.181-.312-.911.069-1.9 0 0 .588-.192 1.925.736A6.558 6.558 0 0 1 8 4.471a6.578 6.578 0 0 1 1.754.241c1.336-.928 1.923-.735 1.923-.735.38.988.14 1.719.069 1.9.449.502.72 1.142.72 1.926 0 2.756-1.637 3.363-3.196 3.54.25.223.48.66.48 1.33v1.97c0 .19.112.414.467.344 2.78-.95 4.783-3.64 4.783-6.81C15 4.213 11.866 1 8 1Z"/>
</svg>
