<svg xmlns="http://www.w3.org/2000/svg" width="16" height="16" fill="none" viewBox="0 0 16 16">
  <path fill="#000" fill-opacity=".9" d="M5.5 14.5v-1.806h-.906a1.31 1.31 0 0 1-1.31-1.31.46.46 0 0 0-.459-.459h-.73v-.85h.73a1.314 1.314 0 0 1 .27.028 1.312 1.312 0 0 1 1.04 1.282.46.46 0 0 0 .46.46H5.5v-.382a1.999 1.999 0 0 1 .217-.905 6.123 6.123 0 0 1-.92-.397l-.02-.012a5.035 5.035 0 0 1-1.286-.977c-.63-.672-1-1.492-1-2.377 0-.845.337-1.63.915-2.284l-.044-.22a3.704 3.704 0 0 1 .54-2.784 3.704 3.704 0 0 1 2.682.923l.352.311a7.265 7.265 0 0 1 2.173.016l.368-.327a3.704 3.704 0 0 1 2.682-.923c.543.82.737 1.821.541 2.784l-.068.332c.52.631.82 1.375.82 2.172 0 1.38-.9 2.603-2.282 3.352-.287.155-.594.29-.918.402a1.998 1.998 0 0 1 .248.967V14.5h-5ZM7.078 3.731l-.458.066-.698-.618a2.704 2.704 0 0 0-1.432-.655 2.704 2.704 0 0 0-.149 1.568l.145.707-.33.374c-.442.5-.665 1.056-.665 1.622 0 1.098.89 2.253 2.548 2.817l1.09.37-.52 1.029a.999.999 0 0 0-.109.452V13.5h3v-1.984a1 1 0 0 0-.124-.483l-.574-1.041 1.123-.388c1.644-.567 2.526-1.716 2.526-2.809 0-.535-.198-1.06-.59-1.536l-.304-.368.163-.8a2.704 2.704 0 0 0-.148-1.567 2.704 2.704 0 0 0-1.432.655l-.722.64-.466-.075a6.248 6.248 0 0 0-1.874-.013Z"/>
</svg>
