<svg xmlns="http://www.w3.org/2000/svg" width="16" height="16" fill="none" viewBox="0 0 16 16">
  <path fill="#000" fill-opacity=".9" d="M8.29 4.008h-.44v-.441A2.568 2.568 0 0 1 10.417 1h.44v.44a2.56 2.56 0 0 1-.751 1.816 2.568 2.568 0 0 1-1.816.752ZM9.58 2.73a1.83 1.83 0 0 0 .502-.955 1.823 1.823 0 0 0-1.457 1.458c.359-.068.692-.242.954-.503Zm3.113 2.36c.224.176.44.396.633.67-.022.013-.181.102-.39.274-.465.38-1.175 1.165-1.165 2.39.024 2.123 1.904 2.828 1.927 2.836a3.721 3.721 0 0 1-.048.15 7.679 7.679 0 0 1-.946 1.845c-.599.857-1.22 1.706-2.2 1.721-.472.012-.788-.121-1.116-.26-.34-.144-.695-.293-1.253-.293-.593 0-.966.155-1.326.305-.309.129-.608.254-1.029.271-.948.03-1.663-.925-2.269-1.775-1.236-1.744-2.176-4.915-.91-7.061.63-1.07 1.75-1.745 2.97-1.76.525-.013 1.035.185 1.482.358.34.132.643.249.887.249.215 0 .496-.108.828-.235.531-.204 1.194-.458 1.931-.402.355.023 1.223.11 1.994.717Zm-2.054.185h-.009c-.402-.031-.804.073-1.24.232-.067.024-.163.06-.265.1-.14.053-.29.11-.388.144-.198.07-.491.163-.797.163-.29 0-.564-.078-.764-.144-.151-.05-.32-.116-.469-.173a3.88 3.88 0 0 0-.14-.054c-.402-.153-.706-.243-.974-.236h-.011c-.888.011-1.724.504-2.202 1.315-.484.821-.581 1.907-.372 3.062.207 1.147.699 2.252 1.24 3.017.309.432.587.806.88 1.074.286.262.48.324.62.32.252-.01.414-.078.743-.214l.048-.02c.38-.156.87-.342 1.596-.342.735 0 1.224.204 1.585.356.333.14.493.204.763.198h.008c.201-.004.4-.084.647-.31.267-.243.518-.586.825-1.026v-.001c.268-.382.469-.761.61-1.071a4.293 4.293 0 0 1-.454-.368 3.876 3.876 0 0 1-1.252-2.864v-.002a3.837 3.837 0 0 1 .967-2.584c.049-.055.097-.108.145-.158-.51-.333-1.055-.395-1.34-.414Z"/>
</svg>
