<svg xmlns="http://www.w3.org/2000/svg" width="16" height="16" fill="none" viewBox="0 0 16 16">
  <path fill="#000" fill-opacity=".9" d="M7.5 1v14h1V1h-1Zm7.22 11.437a.5.5 0 0 1-.349.54c-.072.023-.175.023-.38.023h-3.34c-.14 0-.21 0-.268-.014a.5.5 0 0 1-.37-.37C10 12.56 10 12.49 10 12.35V5c0-.53 0-.795.041-.89a.5.5 0 0 1 .795-.172c.077.07.186.31.406.794l3.34 7.349c.085.187.128.28.138.356ZM11 12h2.447L11 6.617V12Zm-9.37.978a.5.5 0 0 1-.35-.541c.01-.075.053-.169.138-.356l3.34-7.35c.22-.482.33-.724.406-.793a.5.5 0 0 1 .795.172C6 4.205 6 4.47 6 5v7.35c0 .14 0 .21-.014.267a.5.5 0 0 1-.37.37C5.56 13 5.49 13 5.35 13H2.01c-.206 0-.309 0-.38-.022ZM5 6.617 2.553 12H5V6.617Z"/>
</svg>
