<svg xmlns="http://www.w3.org/2000/svg" width="16" height="16" fill="none" viewBox="0 0 16 16">
  <path fill="#000" fill-opacity=".9" d="M6 4H4v2h2V4Z"/>
  <path fill="#000" fill-opacity=".9" d="M2.5 2a.5.5 0 0 0-.5.5v5a.5.5 0 0 0 .5.5h5a.5.5 0 0 0 .5-.5v-5a.5.5 0 0 0-.5-.5h-5ZM3 3h4v4H3V3Zm7.5-1a.5.5 0 0 0-.5.5v3a.5.5 0 0 0 .5.5h3a.5.5 0 0 0 .5-.5v-3a.5.5 0 0 0-.5-.5h-3Zm.5 3V3h2v2h-2Zm-1 5.5v3a.5.5 0 0 0 .5.5h3a.5.5 0 0 0 .5-.5v-3a.5.5 0 0 0-.5-.5h-3a.5.5 0 0 0-.5.5Zm1 2.5v-2h2v2h-2Zm-8.5-3a.5.5 0 0 0-.5.5v3a.5.5 0 0 0 .5.5h3a.5.5 0 0 0 .5-.5v-3a.5.5 0 0 0-.5-.5h-3Zm.5 1h2v2H3v-2Zm11-3.5h-4v1h4v-1ZM8.5 11h-1v3h1v-3Zm0-1h-1V9h1v1Z"/>
</svg>
