<svg xmlns="http://www.w3.org/2000/svg" width="16" height="16" fill="none" viewBox="0 0 16 16">
  <path fill="#000" fill-opacity=".9" d="M8 2.711c2.896 0 5.253 2.363 5.253 5.288h.962c0-3.451-2.783-6.249-6.215-6.249a6.204 6.204 0 0 0-5.29 2.97V2.643h-.96v3.106a.5.5 0 0 0 .5.5h3.087v-.964H3.49A5.246 5.246 0 0 1 8 2.711ZM1.786 7.999c0 3.45 2.782 6.248 6.214 6.248a6.204 6.204 0 0 0 5.291-2.97v2.078h.959v-3.107a.5.5 0 0 0-.5-.5h-3.087v.964h1.847A5.246 5.246 0 0 1 8 13.286c-2.896 0-5.253-2.362-5.253-5.287h-.961Z"/>
</svg>
