<svg xmlns="http://www.w3.org/2000/svg" width="16" height="16" fill="none" viewBox="0 0 16 16">
  <path fill="#000" fill-opacity=".9" d="M9.932 5.358a2.317 2.317 0 1 0-.504-.864l-3.36 1.96a2.317 2.317 0 1 0 0 3.143l3.36 1.959a2.317 2.317 0 1 0 .505-.863l-3.36-1.959a2.316 2.316 0 0 0 0-1.416l3.359-1.96Zm1.702-2.89a1.317 1.317 0 1 1 0 2.635 1.317 1.317 0 0 1 0-2.634Zm-6.146 4.87a.503.503 0 0 0 .03.053 1.311 1.311 0 0 1-.03 1.326 1.316 1.316 0 1 1 0-1.38Zm4.83 4.93c0-.218.052-.423.145-.604a.52.52 0 0 0 .071-.121 1.316 1.316 0 0 1 2.418.725 1.317 1.317 0 0 1-2.635 0Z"/>
</svg>
