<svg xmlns="http://www.w3.org/2000/svg" width="16" height="16" fill="none" viewBox="0 0 16 16">
  <path fill="#000" fill-opacity=".9" d="m4 11 4.243 2.546a.5.5 0 0 0 .757-.43V2.884a.5.5 0 0 0-.757-.429L4 5H2.105a.6.6 0 0 0-.6.6L1.5 10.4a.6.6 0 0 0 .6.6H4Zm1-5.434 3-1.8v8.468l-3-1.8V5.566ZM4 10H2.5l.004-4H4v4Zm9.515-4.273C13.835 6.45 14 7.222 14 8s-.164 1.55-.485 2.273a5.99 5.99 0 0 1-1.394 1.946l.682.73a6.989 6.989 0 0 0 1.626-2.27 6.592 6.592 0 0 0 0-5.358 6.99 6.99 0 0 0-1.626-2.27l-.682.73a5.99 5.99 0 0 1 1.394 1.946Z"/>
  <path fill="#000" fill-opacity=".9" d="M11.5 8c0 .873-.363 1.754-1.077 2.453l.7.715C12.019 10.29 12.499 9.155 12.5 8c.001-1.155-.477-2.289-1.372-3.168l-.7.713C11.14 6.246 11.5 7.127 11.5 8Z"/>
</svg>
