<svg xmlns="http://www.w3.org/2000/svg" width="16" height="16" fill="none" viewBox="0 0 16 16">
  <path fill="#000" fill-opacity=".9" d="M8 1a4.957 4.957 0 0 0-3.534 1.466A4.957 4.957 0 0 0 3 6c0 1.375.554 2.63 1.465 3.532.309.317.659.58 1.035.797V12a1 1 0 0 0 1 1h3a1 1 0 0 0 1-1v-1.671c.376-.216.726-.48 1.035-.797A4.957 4.957 0 0 0 13 6c0-2.766-2.234-5-5-5ZM5.176 3.171A3.957 3.957 0 0 1 8 2c2.214 0 4 1.786 4 4a3.956 3.956 0 0 1-1.171 2.824l-.008.008a3.832 3.832 0 0 1-1.045.75l-.276.139V12h-3V9.721l-.276-.138a3.832 3.832 0 0 1-1.045-.751l-.008-.008A3.957 3.957 0 0 1 4 6c0-1.104.445-2.106 1.171-2.824l.005-.005ZM5.5 14v1h5v-1h-5Z"/>
</svg>
