<svg xmlns="http://www.w3.org/2000/svg" width="16" height="16" fill="none" viewBox="0 0 16 16">
  <path fill="#000" fill-opacity=".9" d="m9.75 8.25.562.154a2.911 2.911 0 0 0 2.846-.733 2.904 2.904 0 0 0 .807-2.505L12.91 6.223a1.5 1.5 0 0 1-2.121 0l-.425-.425a1.5 1.5 0 0 1 0-2.121l1.057-1.056a2.904 2.904 0 0 0-2.505.807 2.912 2.912 0 0 0-.733 2.846l.154.561-5.804 5.804 1.414 1.415 5.805-5.805Zm2.494-6.454c.33.112.649.267.948.467L11.07 4.384a.5.5 0 0 0 0 .707l.425.425a.5.5 0 0 0 .707 0l2.121-2.122c.2.299.355.618.466.948.466 1.38.16 2.952-.924 4.036a3.912 3.912 0 0 1-3.819.99l-5.393 5.393a1 1 0 0 1-1.414 0l-1.414-1.414a1 1 0 0 1 0-1.415L7.218 6.54a3.912 3.912 0 0 1 .99-3.82c1.084-1.083 2.656-1.39 4.036-.924Z"/>
</svg>
