<svg xmlns="http://www.w3.org/2000/svg" width="16" height="16" fill="none" viewBox="0 0 16 16">
  <path fill="#000" fill-opacity=".9" d="M6 1c.526 0 1.022.125 1.462.346l-.63.813a2.25 2.25 0 1 0-.878 4.34v1A3.25 3.25 0 0 1 6 1ZM.54 9.436A12.829 12.829 0 0 1 5.955 8.22v1c-1.77.007-3.443.403-4.954 1.104V12h1.857v1H.5a.5.5 0 0 1-.5-.5v-2.191c0-.372.205-.716.54-.873Z"/>
  <path fill="#000" fill-opacity=".9" d="M10 8.314a3.25 3.25 0 1 1 0-6.5 3.25 3.25 0 0 1 0 6.5Zm0-1a2.25 2.25 0 1 0 0-4.5 2.25 2.25 0 0 0 0 4.5Zm6 4.204V14a.5.5 0 0 1-.5.5h-11A.5.5 0 0 1 4 14v-2.482c0-.372.205-.715.54-.873A12.83 12.83 0 0 1 10 9.43c1.952 0 3.798.437 5.459 1.215a.956.956 0 0 1 .541.873Zm-1 .016a11.83 11.83 0 0 0-5-1.104 11.83 11.83 0 0 0-5 1.104V13.5h10v-1.966Z"/>
</svg>
