<svg xmlns="http://www.w3.org/2000/svg" width="16" height="16" fill="none" viewBox="0 0 16 16">
  <path fill="#000" fill-opacity=".9" d="M8 10.5c1.241 0 2.422.313 3.5.88v1.12h1v-1.142a.941.941 0 0 0-.486-.838A8.48 8.48 0 0 0 8 9.5a8.48 8.48 0 0 0-4.014 1.02.941.941 0 0 0-.486.838V12.5h1v-1.12A7.473 7.473 0 0 1 8 10.5ZM10.5 6a2.5 2.5 0 1 0-5 0 2.5 2.5 0 0 0 5 0Zm-1 0a1.5 1.5 0 1 1-3 0 1.5 1.5 0 0 1 3 0Z"/>
  <path fill="#000" fill-opacity=".9" d="M2.5 1.5a1 1 0 0 0-1 1v11a1 1 0 0 0 1 1h11a1 1 0 0 0 1-1v-11a1 1 0 0 0-1-1h-11Zm11 1v11h-11v-11h11Z"/>
</svg>
