<svg xmlns="http://www.w3.org/2000/svg" width="16" height="16" fill="none" viewBox="0 0 16 16">
  <path fill="#000" fill-opacity=".9" d="M4.182 5.391C4.182 3.518 5.647 2 7.455 2c1.807 0 3.272 1.518 3.272 3.391S9.262 8.783 7.455 8.783c-1.808 0-3.273-1.519-3.273-3.392Zm5.454 0c0-1.248-.976-2.26-2.181-2.26S5.273 4.142 5.273 5.39c0 1.249.977 2.261 2.182 2.261s2.181-1.012 2.181-2.26ZM7.455 9.348c.753 0 1.484.099 2.181.285v1.173a7.42 7.42 0 0 0-6.545 1.09v1.974h6.545V15H3.091C2.488 15 2 14.494 2 13.87v-2.062c0-.424.229-.812.593-1.006l.63-.324h.003a8.451 8.451 0 0 1 4.229-1.13Z"/>
  <path fill="#000" fill-opacity=".9" d="M11.818 9.348v2.26H14v1.131h-2.182V15h-1.09v-2.26H8.544v-1.131h2.182V9.348h1.091Z"/>
</svg>
