<svg xmlns="http://www.w3.org/2000/svg" width="16" height="16" fill="none" viewBox="0 0 16 16">
  <path fill="#000" fill-opacity=".9" d="M8 8.5a3.5 3.5 0 1 1 0-7 3.5 3.5 0 0 1 0 7Zm0-1a2.5 2.5 0 1 0 0-5 2.5 2.5 0 0 0 0 5Zm2.5 3.245A12.806 12.806 0 0 0 8 10.5c-1.967 0-3.826.446-5.5 1.24v1.76h8v1H2a.5.5 0 0 1-.5-.5v-2.275a.96.96 0 0 1 .537-.872A13.785 13.785 0 0 1 8 9.5c.854 0 1.69.078 2.5.227v1.018Zm.904 3.548 1.59-1.591-1.59-1.591.707-.707 1.59 1.59 1.592-1.59.707.707-1.591 1.591 1.59 1.59-.706.708-1.591-1.59L12.11 15l-.707-.707Z"/>
</svg>
