<svg xmlns="http://www.w3.org/2000/svg" width="16" height="16" fill="none" viewBox="0 0 16 16">
  <path fill="#000" fill-opacity=".9" d="m7.462 1.346-.63.813a2.25 2.25 0 1 0-.878 4.34v1a3.25 3.25 0 1 1 1.508-6.153ZM5.954 8.22v1c-1.77.008-3.443.404-4.954 1.105V12h1.857v1H.5a.5.5 0 0 1-.5-.5v-2.191c0-.372.205-.716.54-.873A12.829 12.829 0 0 1 5.955 8.22Z"/>
  <path fill="#000" fill-opacity=".9" d="M13.25 5.064a3.25 3.25 0 1 1-6.5 0 3.25 3.25 0 0 1 6.5 0Zm-1 0a2.25 2.25 0 1 0-4.5 0 2.25 2.25 0 0 0 4.5 0ZM11 10.472a11.83 11.83 0 0 0-6 1.063V13.5h5.5v1h-6A.5.5 0 0 1 4 14v-2.482c0-.372.205-.715.54-.873A12.83 12.83 0 0 1 11 9.47v1.003Zm2.137 1.872-1.449-1.449.707-.707 1.449 1.449 1.449-1.449.707.707-1.449 1.449L16 13.793l-.707.707-1.449-1.449-1.449 1.449-.707-.707 1.449-1.449Z"/>
</svg>
