<svg xmlns="http://www.w3.org/2000/svg" width="16" height="16" fill="none" viewBox="0 0 16 16">
  <path fill="#000" fill-opacity=".9" d="M8 9a2.78 2.78 0 1 0 0-5.56A2.78 2.78 0 0 0 8 9Zm0-1a1.78 1.78 0 1 1 0-3.56A1.78 1.78 0 0 1 8 8Z"/>
  <path fill="#000" fill-opacity=".9" d="M8 15A7 7 0 1 0 8 1a7 7 0 0 0 0 14Zm4.995-3.675C11.476 10.477 9.785 10 8 10c-1.786 0-3.475.476-4.995 1.325a6 6 0 1 1 9.991 0Zm-.632.793A5.983 5.983 0 0 1 8 14c-1.72 0-3.27-.723-4.363-1.882C4.98 11.398 6.453 11 8 11c1.547 0 3.02.398 4.363 1.118Z"/>
</svg>
