<svg xmlns="http://www.w3.org/2000/svg" width="16" height="16" fill="none" viewBox="0 0 16 16">
  <path fill="#000" fill-opacity=".9" d="M13.328 7.828a4 4 0 0 0 0-5.656l.708-.708a5 5 0 0 1 0 7.072l-.708-.708ZM11 5a3.5 3.5 0 1 1-7 0 3.5 3.5 0 0 1 7 0Zm-1 0a2.5 2.5 0 1 0-5 0 2.5 2.5 0 0 0 5 0Zm3.463 5.853a.96.96 0 0 1 .537.872V14a.5.5 0 0 1-.5.5h-12A.5.5 0 0 1 1 14v-2.275a.96.96 0 0 1 .537-.872A13.785 13.785 0 0 1 7.5 9.5c2.133 0 4.15.487 5.963 1.353ZM7.5 10.5c-1.967 0-3.826.446-5.5 1.24v1.76h11v-1.76a12.785 12.785 0 0 0-5.5-1.24Z"/>
  <path fill="#000" fill-opacity=".9" d="m11.914 3.586.707-.707a3 3 0 0 1 0 4.242l-.707-.707a2 2 0 0 0 0-2.828Z"/>
</svg>
