<svg xmlns="http://www.w3.org/2000/svg" width="16" height="16" fill="none" viewBox="0 0 16 16">
  <path fill="#000" fill-opacity=".9" d="m10.154 10.704.698-.716c-.825-.839-1.829-1.3-2.867-1.3-1.026 0-2.018.45-2.837 1.27l.698.716c.663-.67 1.42-.985 2.139-.985.73 0 1.498.325 2.169 1.015Zm2.024-2.077.699-.716c-1.374-1.415-3.1-2.198-4.891-2.198-1.779 0-3.494.772-4.863 2.168l.699.716c1.207-1.24 2.682-1.884 4.164-1.884 1.493 0 2.98.655 4.192 1.914Z"/>
  <path fill="#000" fill-opacity=".9" d="m14.133 6.623.699-.717C12.93 3.94 10.503 2.85 7.986 2.85c-2.506 0-4.92 1.08-6.817 3.028l.698.716C3.599 4.806 5.77 3.849 7.986 3.849c2.226 0 4.41.967 6.147 2.774ZM9 12.5a1 1 0 1 1-2 0 1 1 0 0 1 2 0Z"/>
</svg>
